# AST/ASF file generated using VICON BodyLanguage
# -----------------------------------------------
:version 1.10
:name VICON
:units
  mass 1.0
  length 0.45
  angle deg
:documentation
   .ast/.asf automatically generated from VICON data using
   VICON BodyBuilder and BodyLanguage model FoxedUp or BRILLIANT.MOD
:root
   order TX TY TZ RX RY RZ
   axis XYZ
   position 0 0 0  
   orientation 0 0 0 
:bonedata
  begin
     id 1 
     name lhipjoint
     direction 0.566809 -0.746272 0.349008 
     length 2.40479 
     axis 0 0 0  XYZ
  end
  begin
     id 2 
     name lfemur
     direction 0.34202 -0.939693 0  
     length 7.1578  
     axis 0 0 20  XYZ
    dof rx ry rz
    limits (-160.0 20.0)
           (-70.0 70.0)
           (-60.0 70.0)
  end
  begin
     id 3 
     name ltibia
     direction 0.34202 -0.939693 0   
     length 7.49137   
     axis 0 0 20   XYZ
    dof rx
    limits (-10.0 170.0)
  end
  begin
     id 4 
     name lfoot
     direction 0.0665746 -0.182912 0.980873   
     length 2.36784   
     axis -90 7.62852e-016 20   XYZ
    dof rx rz
    limits (-45.0 90.0)
           (-70.0 20.0)
  end
  begin
     id 5 
     name ltoes
     direction 1.53601e-011 -4.22058e-011 1   
     length 1.18966   
     axis -90 7.62852e-016 20   XYZ
    dof rx
    limits (-90.0 20.0)
  end
  begin
     id 6 
     name rhipjoint
     direction -0.550236 -0.756381 0.353735   
     length 2.37265  
     axis 0 0 0  XYZ 
  end
  begin
     id 7 
     name rfemur
     direction -0.34202 -0.939693 0   
     length 7.43386   
     axis 0 0 -20   XYZ
    dof rx ry rz
    limits (-160.0 20.0)
           (-70.0 70.0)
           (-70.0 60.0)
  end
  begin
     id 8 
     name rtibia
     direction -0.34202 -0.939693 0   
     length 7.50908   
     axis 0 0 -20   XYZ
    dof rx
    limits (-10.0 170.0)
 end
 begin
     id 9 
     name rfoot
     direction -0.0683029 -0.187661 0.979856   
     length 2.41173  
     axis -90 -7.62852e-016 -20   XYZ
    dof rx rz
    limits (-45.0 90.0)
           (-20.0 70.0)
  end
  begin
     id 10 
     name rtoes
     direction -1.53528e-011 -4.21968e-011 1   
     length 1.21082   
     axis -90 -7.62852e-016 -20   XYZ
    dof rx
    limits (-90.0 20.0)
  end
  begin
     id 11 
     name lowerback
     direction 0.013823 0.995423 -0.0945635   
     length 2.04495   
     axis 0 0 0   XYZ
    dof rx ry rz
    limits (-20.0 45.0)
           (-30.0 30.0)
           (-30.0 30.0)
  end
  begin
     id 12 
     name upperback
     direction 0.0276657 0.9994 -0.020853   
     length 2.05008   
     axis 0 0 0   XYZ
    dof rx ry rz
    limits (-20.0 45.0)
           (-30.0 30.0)
           (-30.0 30.0)
  end
  begin
     id 13 
     name thorax
     direction 0.019782 0.999531 0.0233827   
     length 2.06488   
     axis 0 0 0   XYZ
    dof rx ry rz
    limits (-20.0 45.0)
           (-30.0 30.0)
           (-30.0 30.0)
  end
  begin
     id 14 
     name lowerneck
     direction -0.0308541 0.994709 0.0979874   
     length 1.75553   
     axis 0 0 0   XYZ
    dof rx ry rz
    limits (-20.0 45.0)
           (-30.0 30.0)
           (-30.0 30.0)
  end
  begin
     id 15 
     name upperneck
     direction 0.0588398 0.995804 -0.0700903   
     length 1.76878   
     axis 0 0 0   XYZ
    dof rx ry rz
    limits (-20.0 45.0)
           (-30.0 30.0)
           (-30.0 30.0)
  end
  begin
     id 16
     name head
     direction 0.0209966 0.999159 -0.0352225  
     length 1.77193  
     axis 0 0 0   XYZ
    dof rx ry rz
    limits (-20.0 45.0)
           (-30.0 30.0)
           (-30.0 30.0)
  end
  begin
     id 17 
     name lclavicle
     direction 0.938182 0.335073 -0.0868338  
     length 3.58396  
     axis 0 0 0   XYZ
    dof ry rz
    limits (-20.0 10.0)
           (0.0 20.0)
  end
  begin
     id 18 
     name lhumerus
     direction 1 -4.48971e-011 -1.26313e-017   
     length 4.983   
     axis 180 -30 -90   XYZ
    dof rx ry rz
    limits (-60.0 90.0)
           (-90.0 90.0)
           (-90.0 90.0)
  end
  begin
     id 19
     name lradius
     direction 1 -4.48948e-011 -5.89033e-027   
     length 3.48356   
     axis 180 -30 -90   XYZ
    dof rx
    limits (-10.0 170.0)
  end
  begin
     id 20
     name lwrist
     direction 1 -4.48977e-011 -1.48983e-026   
     length 1.74178   
     axis 9.0955e-015 90 90   XYZ
    dof ry
    limits (-180.0 0.0)
 end
  begin
     id 21 
     name lhand
     direction 1 -4.49046e-011 -2.98066e-026   
     length 0.715259   
     axis 1.90115e-014 90 90   XYZ
    dof rx rz
    limits (-90.0 90.0)
           (-45.0 45.0)
  end
  begin
     id 22 
     name lfingers
     direction 1 -4.48907e-011 -5.95731e-026   
     length 0.576661   
     axis 3.80223e-014 90 90   XYZ
    dof rx
    limits (0.0 90.0)
  end
  begin
     id 23
     name lthumb
     direction 0.707107 -6.34963e-011 0.707107   
     length 0.827973   
     axis -90 45 -3.84942e-014   XYZ
    dof rx rz
    limits (-45.0 45.0)
           (-45.0 45.0)
  end
  begin
     id 24 
     name rclavicle
     direction -0.909637 0.398485 -0.11735   
     length 3.44819  
     axis 0 0 0   XYZ 
    dof ry rz
    limits (-10.0 20.0)
           (-20.0 0.0)
  end
  begin
     id 25 
     name rhumerus
     direction -1 -4.48978e-011 -1.09333e-027  
     length 5.2419   
     axis 180 30 90   XYZ
    dof rx ry rz
    limits (-90.0 60.0)
           (-90.0 90.0)
           (-90.0 90.0)
  end
  begin
     id 26 
     name rradius
     direction -1 -4.48953e-011 -7.61841e-027   
     length 3.44417   
     axis 180 30 90   XYZ
    dof rx
    limits (-10.0 170.0)
  end
  begin
     id 27 
     name rwrist
     direction -1 -4.48977e-011 -1.48983e-026   
     length 1.72209   
     axis 9.0955e-015 -90 -90   XYZ
    dof ry
    limits (-180.0 0.0)
  end
  begin
     id 28
     name rhand
     direction -1 -4.49027e-011 -2.98038e-026   
     length 0.622529   
     axis 1.90115e-014 -90 -90   XYZ
    dof rx rz
    limits (-90.0 90.0)
           (-45.0 45.0)
  end
  begin
     id 29
     name rfingers
     direction -1 -4.48838e-011 -5.95531e-026   
     length 0.501899   
     axis 3.80223e-014 -90 -90   XYZ
    dof rx
    limits (0.0 90.0)
  end
  begin
     id 30
     name rthumb
     direction -0.707107 -6.34937e-011 0.707107   
     length 0.720629   
     axis -90 -45 3.84942e-014   XYZ
    dof rx rz
    limits (-45.0 45.0)
           (-45.0 45.0)
  end
:hierarchy
  begin
    root lhipjoint rhipjoint lowerback
    lhipjoint lfemur
    lfemur ltibia
    ltibia lfoot
    lfoot ltoes
    rhipjoint rfemur
    rfemur rtibia
    rtibia rfoot
    rfoot rtoes
    lowerback upperback
    upperback thorax
    thorax lowerneck lclavicle rclavicle
    lowerneck upperneck
    upperneck head
    lclavicle lhumerus
    lhumerus lradius
    lradius lwrist
    lwrist lhand lthumb
    lhand lfingers
    rclavicle rhumerus
    rhumerus rradius
    rradius rwrist
    rwrist rhand rthumb
    rhand rfingers
  end

#!OML:ASF H:\Terrain\Patient Classification 1\PLAYGROUND\JustinFriday\JustinFriday.ASF
:FULLY-SPECIFIED
:DEGREES
134
root -5.53067 17.8067 15.5853 149.824 -83.3874 -148.569
lowerback 11.668 0.559001 -2.83477
upperback 4.58804 0.172154 -1.65925
thorax -1.75432 -0.0173624 -0.145072
lowerneck 5.0046 -12.0277 -14.9135
upperneck 13.1913 -17.9679 9.95707
head 5.42166 -9.27871 4.55905
rclavicle 9.93923e-015 6.36111e-015
rhumerus -34.685 8.51264 -87.0407
rradius 45.2728
rwrist -10.4905
rhand -6.936 -19.5477
rfingers 7.12502
rthumb 18.9324 -48.6463
lclavicle 9.93923e-015 6.36111e-015
lhumerus -30.935 15.6568 70.2891
lradius 26.517
lwrist -2.80296
lhand -14.9814 -3.1117
lfingers 7.12502
lthumb 11.1827 26.5703
rfemur -21.0809 -7.72068 24.0139
rtibia 67.8685
rfoot -5.33952 -18.6069
rtoes 23.1062
lfemur -12.2502 8.94946 -12.2681
ltibia 28.2228
lfoot -12.2831 -7.09036
ltoes 1.74427
135
root -5.65426 17.7948 15.5968 153.51 -83.0861 -152.255
lowerback 11.5816 0.589927 -3.26
upperback 4.6238 0.172494 -1.56111
thorax -1.67086 -0.0237502 0.195999
lowerneck 4.79722 -11.9868 -14.585
upperneck 13.3721 -17.8562 9.62521
head 5.43771 -9.21696 4.40564
rclavicle -6.36111e-015 1.74931e-014
rhumerus -34.9969 7.0662 -86.5791
rradius 45.1588
rwrist -9.20602
rhand -5.6185 -19.2903
rfingers 7.12502
rthumb 20.1991 -48.2601
lclavicle -6.36111e-015 1.74931e-014
lhumerus -30.8557 16.3841 69.8413
lradius 27.2394
lwrist -4.2542
lhand -13.5191 -2.19876
lfingers 7.12502
lthumb 12.5928 27.4017
rfemur -22.0187 -7.72973 23.9546
rtibia 67.4563
rfoot -5.50464 -17.7307
rtoes 20.8421
lfemur -11.9761 9.30183 -12.5165
ltibia 28.7177
lfoot -12.8648 -7.10645
ltoes 1.6056
136
root -5.77267 17.777 15.6049 153.537 -82.771 -151.923
lowerback 11.2028 0.492279 -3.12723
upperback 4.56091 0.0847718 -1.47092
thorax -1.528 -0.0640257 0.227128
lowerneck 4.80684 -11.9742 -13.5871
upperneck 13.1857 -17.7235 9.01346
head 5.21636 -9.13043 4.10371
rclavicle -2.42517e-014 0
rhumerus -35.0195 7.74753 -86.8832
rradius 44.4259
rwrist -9.88598
rhand -4.89267 -18.6715
rfingers 7.12502
rthumb 20.8965 -47.566
lclavicle -2.42517e-014 0
lhumerus -30.6808 15.9318 69.9014
lradius 27.8787
lwrist -1.89184
lhand -15.627 -2.71302
lfingers 7.12502
lthumb 10.56 27.0017
rfemur -23.3076 -7.77295 24.4439
rtibia 66.9445
rfoot -5.63945 -16.864
rtoes 18.6665
lfemur -12.1037 9.48231 -12.3508
ltibia 29.1202
lfoot -13.2011 -7.12513
ltoes 2.49211
137
root -5.88776 17.7578 15.6113 152.006 -82.557 -150.493
lowerback 11.3869 0.362505 -2.78809
upperback 4.63614 -0.0604976 -1.431
thorax -1.54706 -0.135646 0.0957618
lowerneck 4.74598 -11.8404 -14.219
upperneck 13.3728 -17.6527 9.61597
head 5.385 -9.10368 4.37043
rclavicle -1.19271e-015 3.18055e-015
rhumerus -35.0775 7.8923 -87.1967
rradius 43.7888
rwrist -9.939
rhand -3.66198 -17.9323
rfingers 7.12502
rthumb 22.0785 -46.6919
lclavicle -1.19271e-015 3.18055e-015
lhumerus -30.2886 15.4929 69.7924
lradius 28.3189
lwrist -0.320996
lhand -17.2714 -2.9405
lfingers 7.12502
lthumb 8.97346 26.8487
rfemur -24.0037 -7.69876 24.9845
rtibia 66.3005
rfoot -5.9633 -15.9418
rtoes 16.6208
lfemur -11.6956 9.22286 -12.0354
ltibia 29.5111
lfoot -13.8649 -6.72154
ltoes 1.41791
138
root -6.0068 17.7495 15.6212 157.393 -82.5428 -155.819
lowerback 11.3376 0.364947 -3.28932
upperback 4.62947 -0.116267 -1.59463
thorax -1.5244 -0.168932 0.214542
lowerneck 4.68933 -11.7225 -14.6345
upperneck 13.5793 -17.5743 9.99635
head 5.51881 -9.07229 4.54323
rclavicle 3.18055e-015 3.18055e-015
rhumerus -34.8904 8.10279 -87.4579
rradius 42.7661
rwrist -10.2287
rhand -15.2688 -21.9973
rfingers 7.12502
rthumb 10.9055 -51.6941
lclavicle 3.18055e-015 3.18055e-015
lhumerus -30.0225 15.2381 69.6081
lradius 28.9281
lwrist 0.633527
lhand -17.7623 -2.87351
lfingers 7.12502
lthumb 8.49977 26.9354
rfemur -24.9527 -7.50973 24.5033
rtibia 65.5639
rfoot -6.4794 -14.7718
rtoes 14.8215
lfemur -11.4394 9.12831 -12.7848
ltibia 29.8946
lfoot -14.6885 -6.12432
ltoes -0.579727
139
root -6.11921 17.734 15.6405 163.263 -82.6399 -161.447
lowerback 11.2131 0.34009 -3.8796
upperback 4.53075 -0.207848 -1.69461
thorax -1.55368 -0.216917 0.453419
lowerneck 4.96783 -11.6752 -14.5822
upperneck 13.3524 -17.524 9.98277
head 5.38983 -9.05485 4.56152
rclavicle 1.43125e-014 3.49861e-014
rhumerus -35.1985 6.74126 -87.0012
rradius 42.422
rwrist -9.26657
rhand -5.96451 -17.7536
rfingers 7.12502
rthumb 19.8665 -46.7582
lclavicle 1.43125e-014 3.49861e-014
lhumerus -29.9419 14.9452 69.5621
lradius 29.8352
lwrist 1.59233
lhand -17.7264 -2.7046
lfingers 7.12502
lthumb 8.53436 27.1029
rfemur -26.0393 -7.84741 23.9052
rtibia 64.719
rfoot -6.8754 -13.4575
rtoes 13.1472
lfemur -11.412 9.04279 -13.6933
ltibia 30.1497
lfoot -15.2041 -5.78436
ltoes -1.74161
140
root -6.22957 17.7193 15.6441 163.05 -82.4065 -160.93
lowerback 11.084 0.317279 -3.76409
upperback 4.42524 -0.212956 -1.63154
thorax -1.59335 -0.213686 0.45467
lowerneck 5.09557 -11.8433 -14.114
upperneck 13.2773 -17.718 9.70237
head 5.30377 -9.14272 4.40378
rclavicle -1.27222e-014 1.59028e-015
rhumerus -35.5539 5.69052 -86.6906
rradius 42.4134
rwrist -8.57769
rhand -4.45837 -18.4459
rfingers 7.12502
rthumb 21.3137 -47.2939
lclavicle -1.27222e-014 1.59028e-015
lhumerus -29.7522 14.163 69.4947
lradius 30.6008
lwrist 2.79514
lhand -18.0713 -2.76666
lfingers 7.12502
lthumb 8.20153 27.0542
rfemur -27.0259 -7.92525 24.4041
rtibia 63.6845
rfoot -7.34767 -12.618
rtoes 13.5146
lfemur -11.3703 9.30169 -13.5301
ltibia 30.3226
lfoot -15.3585 -5.95605
ltoes -1.377
141
root -6.34927 17.7118 15.6422 164.931 -82.1949 -162.588
lowerback 10.8866 0.253901 -3.84102
upperback 4.38984 -0.297492 -1.75888
thorax -1.51974 -0.255813 0.375648
lowerneck 4.82604 -11.8064 -14.2169
upperneck 13.7852 -17.7504 10.0234
head 5.5466 -9.15027 4.48299
rclavicle 1.15295e-014 2.22639e-014
rhumerus -35.8588 5.35046 -86.8383
rradius 42.5031
rwrist -8.45608
rhand -5.28094 -19.9328
rfingers 7.12502
rthumb 20.5235 -48.868
lclavicle 1.15295e-014 2.22639e-014
lhumerus -29.3818 13.9157 69.0823
lradius 30.9373
lwrist 3.58608
lhand -18.6329 -3.14378
lfingers 7.12502
lthumb 7.65947 26.6975
rfemur -27.9826 -7.87172 24.5697
rtibia 62.6025
rfoot -7.88092 -11.8932
rtoes 14.3591
lfemur -11.1529 9.74019 -13.66
ltibia 30.3855
lfoot -15.1962 -6.48132
ltoes 0.746327
142
root -6.47041 17.6945 15.6597 167.888 -82.279 -165.753
lowerback 11.1662 0.097702 -3.9543
upperback 4.4874 -0.542257 -1.89998
thorax -1.5625 -0.382654 0.323256
lowerneck 4.48175 -11.7694 -14.616
upperneck 14.1541 -17.7694 10.4258
head 5.7926 -9.1543 4.62789
rclavicle -1.23246e-014 0
rhumerus -35.5055 4.99281 -86.8127
rradius 41.4599
rwrist -8.40202
rhand -8.22094 -21.1832
rfingers 7.12502
rthumb 17.6962 -50.3979
lclavicle -1.23246e-014 0
lhumerus -28.9083 14.5694 68.6725
lradius 30.999
lwrist 3.48486
lhand -19.2281 -3.69258
lfingers 7.12502
lthumb 7.08494 26.1688
rfemur -28.3808 -8.34541 24.2596
rtibia 61.2509
rfoot -8.22249 -11.0159
rtoes 12.8268
lfemur -10.5671 9.60368 -14.1532
ltibia 30.5798
lfoot -16.0385 -6.77448
ltoes 3.28483
143
root -6.57271 17.6766 15.7255 181.495 -82.2006 -178.958
lowerback 11.175 0.00661976 -4.93427
upperback 4.2538 -0.797689 -2.47285
thorax -1.79447 -0.509494 0.310218
lowerneck 4.40291 -11.8165 -14.5275
upperneck 14.049 -17.7777 10.2292
head 5.74871 -9.15625 4.55017
rclavicle 2.62396e-014 -4.45278e-014
rhumerus -36.1798 4.17235 -86.5728
rradius 42.1259
rwrist -7.74448
rhand -10.035 -23.1923
rfingers 7.12502
rthumb 15.95 -52.5556
lclavicle 2.62396e-014 -4.45278e-014
lhumerus -28.6319 14.9467 68.3995
lradius 31.3495
lwrist 3.29473
lhand -19.8863 -3.83176
lfingers 7.12502
lthumb 6.44956 26.05
rfemur -29.7122 -9.22518 22.3636
rtibia 59.9927
rfoot -8.59579 -9.37961
rtoes 11.7526
lfemur -10.6061 9.7143 -16.4482
ltibia 30.5739
lfoot -16.4033 -6.35183
ltoes 0.287955
144
root -6.7124 17.6622 15.6604 169.739 -81.468 -167.503
lowerback 11.248 0.121545 -4.28029
upperback 4.44898 -0.545026 -1.71351
thorax -1.64105 -0.386038 0.700474
lowerneck 4.56295 -11.8307 -14.4353
upperneck 13.6954 -17.7401 10.0163
head 5.58016 -9.14274 4.49418
rclavicle -3.57812e-015 2.22639e-014
rhumerus -36.2289 4.17003 -86.4995
rradius 41.4457
rwrist -7.69179
rhand -12.3101 -23.8198
rfingers 7.12502
rthumb 13.7582 -53.3449
lclavicle -3.57812e-015 2.22639e-014
lhumerus -28.3733 14.7626 68.3508
lradius 31.9058
lwrist 3.74075
lhand -20.6659 -3.62551
lfingers 7.12502
lthumb 5.69697 26.2779
rfemur -29.5423 -8.00816 24.7304
rtibia 58.2761
rfoot -9.32362 -9.6482
rtoes 12.704
lfemur -9.56724 9.79497 -14.2338
ltibia 30.6347
lfoot -16.6445 -5.93261
ltoes -1.03514
145
root -6.82156 17.6531 15.6479 176.874 -81.46 -174.274
lowerback 10.9827 0.154915 -5.38804
upperback 4.33443 -0.605856 -1.84777
thorax -1.59897 -0.423434 1.1875
lowerneck 4.47358 -11.8618 -14.3683
upperneck 13.7715 -17.7724 9.95566
head 5.61132 -9.15498 4.45515
rclavicle -1.98785e-014 9.54166e-015
rhumerus -36.3099 2.98272 -86.0908
rradius 40.7521
rwrist -6.78677
rhand -15.2157 -22.4138
rfingers 7.12502
rthumb 10.9567 -52.1079
lclavicle -1.98785e-014 9.54166e-015
lhumerus -28 14.3487 68.418
lradius 32.4368
lwrist 4.66413
lhand -21.4904 -3.57514
lfingers 7.12502
lthumb 4.90084 26.3482
rfemur -30.5982 -8.09407 24.0775
rtibia 56.6735
rfoot -9.40988 -9.2786
rtoes 12.8851
lfemur -9.58561 10.0653 -15.3444
ltibia 30.5831
lfoot -16.6549 -6.47348
ltoes 2.65818
146
root -6.94037 17.6379 15.6455 181.87 -81.406 -179.096
lowerback 10.8199 0.0625141 -5.96336
upperback 4.30444 -0.78466 -2.04384
thorax -1.52339 -0.51876 1.32536
lowerneck 4.27243 -11.8635 -14.1552
upperneck 14.0299 -17.7905 9.98914
head 5.71026 -9.14984 4.41512
rclavicle -2.14687e-014 2.38542e-014
rhumerus -36.4072 3.28833 -85.7553
rradius 40.4557
rwrist -7.52656
rhand -15.6693 -20.9377
rfingers 7.12502
rthumb 10.5192 -50.6545
lclavicle -2.14687e-014 2.38542e-014
lhumerus -27.7391 14.0442 68.2381
lradius 33.1065
lwrist 5.61391
lhand -22.1122 -3.32911
lfingers 7.12502
lthumb 4.30038 26.6072
rfemur -31.2127 -8.42735 23.738
rtibia 54.7689
rfoot -9.29941 -9.30932
rtoes 10.9897
lfemur -9.38732 10.5723 -16.1123
ltibia 30.6017
lfoot -16.8884 -7.09271
ltoes 4.25009
